<?xml version="1.0" standalone="no"?>
<!DOCTYPE svg PUBLIC "-//W3C//DTD SVG 20010904//EN"
 "http://www.w3.org/TR/2001/REC-SVG-20010904/DTD/svg10.dtd">
<svg version="1.0" xmlns="http://www.w3.org/2000/svg"
 width="570.000000pt" height="570.000000pt" viewBox="0 0 570.000000 570.000000"
 preserveAspectRatio="xMidYMid meet">
<metadata>
Created by potrace 1.11, written by Peter Selinger 2001-2013
</metadata>
<g transform="translate(0.000000,570.000000) scale(0.100000,-0.100000)"
fill="#000000" stroke="none">
<path d="M1522 5211 c-739 -263 -1345 -481 -1348 -484 -6 -5 424 -3509 432
-3516 2 -2 515 -275 1141 -608 813 -432 1142 -602 1154 -596 9 4 518 277 1131
606 l1114 599 197 1755 c109 966 194 1759 190 1763 -14 12 -2633 960 -2651
959 -9 0 -621 -215 -1360 -478z"/>
</g>
</svg>
